{
.appVersion = "3134";
.formatVersion = 3;
DisplayStrings = (
"HH/Placeholder HOHO/Placeholder OO

HILUNSHOTG

IN SOLIDARITY WITH
FIRST NATIONS STRUGGLES HERE &
IN PALESTINE

SUNDAY PROTEST MARKER - URGENT SHARPIE ON
MICRO PLACARD

ABCDEFGHIJ
KLMNOPQRS
TUVWXYZ
0123456789
&-.,

",
"AHH2./.notdef HH"
);
date = "2021-11-04 02:14:20 +0000";
familyName = "Sunday Protest Marker";
fontMaster = (
{
id = m01;
metricValues = (
{
over = 16;
pos = 700;
},
{
over = 16;
pos = 700;
},
{
over = 16;
pos = 600;
},
{
over = -16;
},
{
over = -16;
pos = -100;
},
{
over = -16;
pos = 12;
}
);
name = Regular;
userData = {
GSCornerRadius = 25;
GSRoughenHorizontal = 0;
GSRoughenSegmentLength = 45;
GSRoughenVertical = 50;
};
}
);
glyphs = (
{
glyphname = A;
lastChange = "2022-08-24 07:47:29 +0000";
layers = (
{
hints = (
{
name = _corner.round1;
origin = (0,10,1,1);
stem = 1000;
type = Corner;
},
{
name = _corner.round1;
origin = (0,3,1,1);
stem = 1000;
type = Corner;
},
{
name = _corner.round1;
origin = (0,3,1,3);
stem = 1000;
type = Corner;
},
{
name = _corner.round1;
origin = (0,10,1,3);
stem = 1000;
type = Corner;
}
);
layerId = m01;
shapes = (
{
closed = 1;
nodes = (
(93,-140,o),
(134,-128,o),
(172,-67,cs),
(518,485,ls),
(548,533,o),
(568,557,o),
(609,557,cs),
(643,557,o),
(664,532,o),
(647,489,cs),
(476,64,ls),
(448,-6,o),
(518,-45,o),
(587,-45,cs),
(662,-45,o),
(723,1,o),
(746,85,cs),
(865,528,ls),
(901,661,o),
(852,745,o),
(707,745,cs),
(591,745,o),
(432,691,o),
(357,591,cs),
(-41,58,ls),
(-151,-89,o),
(-75,-140,o),
(28,-140,cs)
);
},
{
closed = 1;
nodes = (
(692,275,l),
(227,292,l),
(206,129,l),
(559,100,l)
);
}
);
width = 917;
}
);
unicode = (65,97);
},
{
glyphname = B;
lastChange = "2022-08-24 07:47:29 +0000";
layers = (
{
hints = (
{
name = _corner.round1;
origin = (0,29,1,6);
stem = 1000;
type = Corner;
},
{
name = _corner.round1;
origin = (0,32,1,3);
stem = 1000;
type = Corner;
},
{
name = _corner.round1;
origin = (0,41,1,3);
stem = 1000;
type = Corner;
}
);
layerId = m01;
shapes = (
{
closed = 1;
nodes = (
(526,-142,o),
(680,-41,o),
(680,119,cs),
(681,197,o),
(631,222,o),
(548,253,cs),
(511,267,o),
(514,288,o),
(547,297,cs),
(732,346,o),
(774,431,o),
(774,525,cs),
(774,672,o),
(607,767,o),
(319,700,cs),
(243,682,o),
(216,644,o),
(216,580,cs),
(216,522,o),
(265,493,o),
(331,512,cs),
(529,567,o),
(572,537,o),
(572,485,cs),
(572,438,o),
(508,402,o),
(337,367,cs),
(262,352,o),
(223,337,o),
(223,278,cs),
(223,239,o),
(256,223,o),
(322,196,cs),
(422,155,o),
(464,132,o),
(464,97,cs),
(464,61,o),
(428,27,o),
(332,27,cs),
(236,27,o),
(216,52,o),
(178,52,cs),
(133,52,o),
(108,15,o),
(108,-38,cs),
(108,-95,o),
(184,-142,o),
(293,-142,cs)
);
},
{
closed = 1;
nodes = (
(167,-71,o),
(205,-61,o),
(223,0,cs),
(315,312,ls),
(349,427,o),
(321,484,o),
(246,484,cs),
(202,484,o),
(166,462,o),
(149,402,cs),
(46,42,ls),
(27,-23,o),
(50,-71,o),
(129,-71,cs)
);
}
);
width = 797;
}
);
unicode = (66,98);
},
{
glyphname = C;
lastChange = "2022-08-24 07:47:29 +0000";
layers = (
{
background = {
shapes = (
{
ref = G;
}
);
};
layerId = m01;
shapes = (
{
closed = 1;
nodes = (
(403,-24,o),
(557,41,o),
(655,120,cs),
(694,153,o),
(708,185,o),
(708,214,cs),
(708,323,o),
(590,368,o),
(534,301,cs),
(448,198,o),
(379,156,o),
(320,156,cs),
(287,156,o),
(263,171,o),
(263,212,cs),
(263,330,o),
(354,478,o),
(484,532,cs),
(536,554,o),
(560,578,o),
(560,622,cs),
(560,691,o),
(520,719,o),
(459,719,cs),
(223,719,o),
(52,381,o),
(52,205,cs),
(52,92,o),
(137,-24,o),
(292,-24,cs)
);
}
);
width = 778;
}
);
unicode = (67,99);
},
{
glyphname = D;
lastChange = "2022-08-24 07:47:29 +0000";
layers = (
{
layerId = m01;
shapes = (
{
closed = 1;
nodes = (
(79,136,ls),
(62,85,o),
(40,59,o),
(10,43,cs),
(-43,15,ls),
(-112,-22,o),
(-132,-65,o),
(-132,-105,cs),
(-132,-147,o),
(-93,-180,o),
(-24,-180,cs),
(106,-180,o),
(554,110,o),
(680,204,cs),
(815,304,o),
(855,385,o),
(855,458,cs),
(855,640,o),
(548,788,o),
(370,788,cs),
(272,788,o),
(232,729,o),
(232,666,cs),
(232,626,o),
(230,599,o),
(217,559,cs)
);
},
{
closed = 1;
nodes = (
(420,550,ls),
(431,582,o),
(448,596,o),
(480,581,cs),
(579,536,o),
(624,491,o),
(624,455,cs),
(624,409,o),
(541,326,o),
(353,218,cs),
(318,198,o),
(303,210,o),
(316,248,cs)
);
}
);
width = 882;
}
);
unicode = (68,100);
},
{
glyphname = E;
lastChange = "2022-08-24 07:47:29 +0000";
layers = (
{
layerId = m01;
shapes = (
{
closed = 1;
nodes = (
(286,734,o),
(221,691,o),
(167,504,cs),
(79,200,ls),
(30,30,o),
(195,-73,o),
(436,-17,cs),
(613,24,ls),
(704,45,o),
(731,80,o),
(731,132,cs),
(731,214,o),
(664,259,o),
(571,228,cs),
(420,179,ls),
(371,163,o),
(341,181,o),
(341,213,cs),
(341,239,o),
(356,255,o),
(391,265,cs),
(604,329,ls),
(660,346,o),
(687,372,o),
(687,417,cs),
(687,494,o),
(620,520,o),
(550,493,cs),
(433,448,ls),
(406,438,o),
(379,451,o),
(379,479,cs),
(379,521,o),
(406,550,o),
(468,555,cs),
(528,559,ls),
(585,564,o),
(621,599,o),
(621,649,cs),
(621,700,o),
(597,734,o),
(503,734,cs),
(433,734,ls)
);
}
);
width = 810;
}
);
unicode = (69,101);
},
{
glyphname = F;
lastChange = "2022-08-24 07:47:29 +0000";
layers = (
{
layerId = m01;
shapes = (
{
closed = 1;
nodes = (
(288,719,o),
(227,687,o),
(198,567,cs),
(141,330,ls),
(137,315,o),
(127,305,o),
(100,299,cs),
(52,287,o),
(26,263,o),
(26,205,cs),
(26,159,o),
(40,138,o),
(65,132,cs),
(79,128,o),
(84,116,o),
(79,93,cs),
(48,-44,ls),
(19,-174,o),
(83,-222,o),
(152,-221,cs),
(217,-222,o),
(249,-191,o),
(261,-121,cs),
(283,10,ls),
(294,75,o),
(315,133,o),
(432,144,cs),
(640,163,ls),
(709,169,o),
(742,211,o),
(745,265,cs),
(748,339,o),
(687,359,o),
(591,348,cs),
(399,326,ls),
(372,323,o),
(362,339,o),
(371,375,cs),
(390,453,ls),
(399,491,o),
(421,519,o),
(476,522,cs),
(625,529,ls),
(692,532,o),
(732,570,o),
(732,616,cs),
(732,676,o),
(690,701,o),
(601,705,cs),
(419,713,ls)
);
}
);
width = 801;
}
);
unicode = (70,102);
},
{
glyphname = G;
lastChange = "2022-08-24 07:47:29 +0000";
layers = (
{
layerId = m01;
shapes = (
{
closed = 1;
nodes = (
(247,718,o),
(55,368,o),
(55,201,cs),
(55,102,o),
(115,-14,o),
(242,-14,cs),
(390,-14,o),
(661,138,o),
(697,248,cs),
(705,273,o),
(721,284,o),
(752,285,cs),
(789,285,o),
(882,291,o),
(935,295,cs),
(1022,300,o),
(1065,330,o),
(1065,416,cs),
(1066,487,o),
(1030,518,o),
(943,511,cs),
(800,499,o),
(712,506,o),
(599,517,cs),
(553,521,o),
(506,475,o),
(506,426,cs),
(506,390,o),
(522,376,o),
(522,360,cs),
(522,323,o),
(344,188,o),
(299,188,cs),
(278,188,o),
(266,200,o),
(266,216,cs),
(266,285,o),
(377,446,o),
(478,525,cs),
(521,558,o),
(542,582,o),
(542,631,cs),
(542,684,o),
(506,718,o),
(440,718,cs)
);
}
);
width = 1055;
}
);
unicode = (71,103);
},
{
glyphname = H;
lastChange = "2022-08-24 07:47:29 +0000";
layers = (
{
background = {
shapes = (
{
closed = 1;
nodes = (
(73,136,ls),
(59,63,o),
(107,-12,o),
(184,-12,cs),
(254,-12,o),
(285,32,o),
(298,76,cs),
(429,526,ls),
(467,657,o),
(399,713,o),
(309,713,cs),
(221,713,o),
(177,672,o),
(157,569,cs)
);
},
{
closed = 1;
nodes = (
(483,113,ls),
(465,40,o),
(511,-35,o),
(588,-35,cs),
(658,-35,o),
(688,9,o),
(702,53,cs),
(841,507,ls),
(889,664,o),
(822,721,o),
(732,721,cs),
(644,721,o),
(621,680,o),
(591,557,cs)
);
},
{
closed = 1;
nodes = (
(264,306,l),
(613,245,l),
(644,428,l),
(307,483,l)
);
},
{
closed = 1;
nodes = (
(73,136,ls),
(59,63,o),
(107,-12,o),
(184,-12,cs),
(254,-12,o),
(285,32,o),
(298,76,cs),
(429,526,ls),
(467,657,o),
(399,713,o),
(309,713,cs),
(221,713,o),
(177,672,o),
(157,569,cs)
);
},
{
closed = 1;
nodes = (
(483,113,ls),
(465,40,o),
(511,-35,o),
(588,-35,cs),
(658,-35,o),
(688,9,o),
(702,53,cs),
(841,507,ls),
(889,664,o),
(822,721,o),
(732,721,cs),
(644,721,o),
(621,680,o),
(591,557,cs)
);
},
{
closed = 1;
nodes = (
(264,306,l),
(613,245,l),
(644,428,l),
(307,483,l)
);
}
);
};
layerId = m01;
shapes = (
{
closed = 1;
nodes = (
(73,136,ls),
(59,63,o),
(107,-12,o),
(184,-12,cs),
(254,-12,o),
(285,32,o),
(298,76,cs),
(353,266,ls),
(357,281,o),
(368,288,o),
(383,285,cs),
(494,265,ls),
(510,262,o),
(517,253,o),
(513,236,cs),
(483,113,ls),
(465,40,o),
(511,-35,o),
(588,-35,cs),
(658,-35,o),
(688,9,o),
(702,53,cs),
(841,507,ls),
(889,664,o),
(822,721,o),
(732,721,cs),
(644,721,o),
(621,680,o),
(591,557,cs),
(569,464,ls),
(565,448,o),
(554,442,o),
(539,445,cs),
(438,462,ls),
(422,465,o),
(414,475,o),
(419,492,cs),
(429,526,ls),
(467,657,o),
(399,713,o),
(309,713,cs),
(221,713,o),
(177,672,o),
(157,569,cs)
);
}
);
width = 899;
}
);
unicode = (72,104);
},
{
glyphname = I;
lastChange = "2022-08-24 07:47:29 +0000";
layers = (
{
layerId = m01;
shapes = (
{
closed = 1;
nodes = (
(69,126,ls),
(53,53,o),
(87,-12,o),
(184,-12,cs),
(254,-12,o),
(286,32,o),
(298,76,cs),
(401,440,ls),
(439,573,o),
(379,633,o),
(289,633,cs),
(211,633,o),
(169,593,o),
(147,489,cs)
);
}
);
width = 472;
}
);
unicode = (73,105);
},
{
glyphname = J;
lastChange = "2022-08-24 07:47:29 +0000";
layers = (
{
hints = (
{
name = _corner.round1;
origin = (0,1,1,0);
stem = 1000;
type = Corner;
},
{
name = _corner.round1;
origin = (0,10,1,0);
stem = 1000;
type = Corner;
}
);
layerId = m01;
shapes = (
{
closed = 1;
nodes = (
(569,243,o),
(630,546,cs),
(654,671,o),
(616,730,o),
(562,730,cs),
(493,730,o),
(457,691,o),
(436,592,cs),
(374,310,o),
(313,144,o),
(202,144,cs),
(178,144,o),
(138,158,o),
(107,167,cs),
(12,198,o),
(-55,126,o),
(-55,60,cs),
(-55,9,o),
(-25,-41,o),
(45,-60,cs),
(95,-74,o),
(133,-78,o),
(170,-78,cs),
(478,-78,o)
);
},
{
closed = 1;
nodes = (
(716,548,ls),
(797,560,o),
(833,601,o),
(833,658,cs),
(833,728,o),
(781,765,o),
(691,754,cs),
(313,709,ls),
(238,700,o),
(188,667,o),
(188,601,cs),
(188,527,o),
(253,482,o),
(335,494,cs)
);
}
);
width = 780;
}
);
unicode = (74,106);
},
{
glyphname = K;
lastChange = "2022-08-24 07:47:29 +0000";
layers = (
{
layerId = m01;
shapes = (
{
closed = 1;
nodes = (
(69,126,ls),
(56,53,o),
(87,-12,o),
(184,-12,cs),
(256,-12,o),
(295,31,o),
(303,85,cs),
(365,510,ls),
(383,630,o),
(341,684,o),
(270,684,cs),
(202,684,o),
(163,649,o),
(147,559,cs)
);
},
{
closed = 1;
nodes = (
(362,499,ls),
(289,436,o),
(285,353,o),
(360,280,cs),
(482,161,o),
(696,95,o),
(881,95,cs),
(960,95,o),
(996,130,o),
(996,200,cs),
(996,263,o),
(957,302,o),
(871,302,cs),
(757,302,o),
(626,321,o),
(558,383,cs),
(542,397,o),
(544,411,o),
(564,425,cs),
(768,567,ls),
(857,629,o),
(812,749,o),
(718,749,cs),
(676,749,o),
(642,738,o),
(598,700,cs)
);
}
);
width = 1031;
}
);
unicode = (75,107);
},
{
glyphname = L;
lastChange = "2022-08-24 07:47:29 +0000";
layers = (
{
layerId = m01;
shapes = (
{
closed = 1;
nodes = (
(72,150,ls),
(52,62,o),
(86,2,o),
(184,-12,cs),
(459,-52,ls),
(601,-73,o),
(614,0,o),
(614,72,cs),
(614,105,o),
(595,132,o),
(558,136,cs),
(328,162,ls),
(303,165,o),
(299,174,o),
(309,200,cs),
(411,470,ls),
(460,601,o),
(389,663,o),
(299,663,cs),
(221,663,o),
(181,623,o),
(157,519,cs)
);
}
);
width = 689;
}
);
unicode = (76,108);
},
{
glyphname = M;
lastChange = "2022-08-24 07:47:29 +0000";
layers = (
{
layerId = m01;
shapes = (
{
closed = 1;
nodes = (
(942,-132,o),
(1011,-64,o),
(1003,77,cs),
(983,416,ls),
(977,525,o),
(905,586,o),
(807,586,cs),
(747,586,o),
(698,558,o),
(644,471,cs),
(623,437,ls),
(598,397,o),
(563,400,o),
(558,447,cs),
(545,567,ls),
(534,671,o),
(486,726,o),
(395,726,cs),
(327,726,o),
(247,663,o),
(200,565,cs),
(43,239,ls),
(2,153,o),
(36,90,o),
(106,90,cs),
(155,90,o),
(201,128,o),
(248,216,cs),
(341,389,ls),
(350,406,o),
(373,421,o),
(373,382,cs),
(373,330,ls),
(373,212,o),
(432,148,o),
(519,147,cs),
(593,148,o),
(645,175,o),
(684,230,cs),
(706,261,ls),
(732,298,o),
(763,300,o),
(760,246,cs),
(746,16,ls),
(739,-91,o),
(772,-132,o),
(875,-132,cs)
);
}
);
width = 1113;
}
);
unicode = (77,109);
},
{
glyphname = N;
lastChange = "2022-08-24 07:47:29 +0000";
layers = (
{
layerId = m01;
shapes = (
{
closed = 1;
nodes = (
(909,718,o),
(885,690,o),
(857,637,cs),
(730,399,ls),
(695,333,o),
(654,354,o),
(653,405,cs),
(652,452,ls),
(648,617,o),
(546,690,o),
(454,690,cs),
(382,690,o),
(326,653,o),
(261,539,cs),
(26,126,ls),
(-47,-2,o),
(26,-78,o),
(102,-78,cs),
(147,-78,o),
(169,-55,o),
(202,-1,cs),
(403,322,ls),
(420,350,o),
(434,356,o),
(448,356,cs),
(468,356,o),
(482,342,o),
(487,306,cs),
(505,185,ls),
(518,96,o),
(579,20,o),
(671,20,cs),
(731,20,o),
(783,47,o),
(816,106,cs),
(1062,541,ls),
(1116,636,o),
(1076,718,o),
(969,718,cs)
);
}
);
width = 1070;
}
);
unicode = (78,110);
},
{
glyphname = O;
lastChange = "2022-08-24 07:47:29 +0000";
layers = (
{
background = {
shapes = (
{
closed = 1;
nodes = (
(475,740,l),
(431,710,l),
(389,716,l),
(349,678,l),
(312,681,l),
(276,651,l),
(243,612,l),
(213,585,l),
(186,549,l),
(160,493,l),
(138,482,l),
(117,411,l),
(100,373,l),
(85,368,l),
(73,311,l),
(65,282,l),
(66,180,l),
(79,156,l),
(99,75,l),
(126,40,l),
(159,7,l),
(196,14,l),
(237,1,l),
(280,-48,l),
(324,-34,l),
(413,-32,l),
(456,-25,l),
(497,14,l),
(535,31,l),
(570,36,l),
(602,94,l),
(630,113,l),
(655,156,l),
(677,190,l),
(696,246,l),
(712,268,l),
(726,305,l),
(737,354,l),
(746,383,l),
(754,417,l),
(759,497,l),
(762,505,l),
(761,602,l),
(755,632,l),
(737,670,l),
(705,739,l),
(619,740,l),
(585,696,l),
(564,671,l),
(555,586,l),
(552,525,l),
(548,491,l),
(542,436,l),
(532,378,l),
(520,358,l),
(504,280,l),
(484,227,l),
(460,210,l),
(430,164,l),
(395,174,l),
(316,171,l),
(285,159,l),
(278,259,l),
(291,307,l),
(308,358,l),
(329,382,l),
(353,405,l),
(382,442,l),
(413,464,l),
(449,512,l),
(490,525,l),
(580,565,l),
(621,573,l),
(634,663,l),
(611,675,l),
(569,734,l)
);
}
);
};
hints = (
{
name = _corner.round1;
origin = (0,11,0,20);
stem = 1000;
type = Corner;
}
);
layerId = m01;
shapes = (
{
closed = 1;
nodes = (
(632,-34,o),
(763,284,o),
(763,570,cs),
(763,660,o),
(747,724,o),
(663,724,cs),
(581,724,o),
(553,659,o),
(553,561,cs),
(553,314,o),
(452,148,o),
(356,148,cs),
(304,148,o),
(273,177,o),
(273,216,cs),
(273,329,o),
(400,537,o),
(533,537,cs),
(603,537,o),
(640,573,o),
(640,604,cs),
(640,688,o),
(603,729,o),
(519,729,cs),
(228,729,o),
(62,385,o),
(62,221,cs),
(62,104,o),
(160,-34,o),
(369,-34,cs)
);
}
);
width = 810;
}
);
unicode = (79,111);
},
{
glyphname = P;
lastChange = "2022-08-24 07:47:29 +0000";
layers = (
{
hints = (
{
name = _corner.round1;
origin = (0,7,1,17);
stem = 1000;
type = Corner;
},
{
name = _corner.round1;
origin = (0,10,1,11);
stem = 1000;
type = Corner;
}
);
layerId = m01;
shapes = (
{
closed = 1;
nodes = (
(9,46,ls),
(-24,-29,o),
(13,-92,o),
(104,-92,cs),
(149,-92,o),
(186,-74,o),
(218,-4,cs),
(407,405,ls),
(467,535,o),
(414,608,o),
(325,608,cs),
(274,608,o),
(241,581,o),
(211,512,cs)
);
},
{
closed = 1;
nodes = (
(362,813,o),
(330,766,o),
(331,716,cs),
(331,674,o),
(371,633,o),
(423,633,cs),
(649,633,o),
(727,615,o),
(727,569,cs),
(727,505,o),
(571,416,o),
(325,416,cs),
(274,416,o),
(194,247,o),
(272,247,cs),
(616,247,o),
(966,394,o),
(967,592,cs),
(966,734,o),
(738,813,o),
(452,814,cs)
);
}
);
width = 938;
}
);
unicode = (80,112);
},
{
glyphname = Q;
lastChange = "2022-08-24 07:47:29 +0000";
layers = (
{
associatedMasterId = m01;
layerId = "4626F6E8-05B1-41BD-8DE3-66C17D5C62F2";
name = "6 Nov 21, 17:44";
shapes = (
{
closed = 1;
nodes = (
(670,29,o),
(825,301,o),
(784,534,cs),
(768,624,o),
(717,657,o),
(655,657,cs),
(584,657,o),
(548,603,o),
(561,525,cs),
(595,322,o),
(493,211,o),
(424,211,cs),
(344,211,o),
(297,257,o),
(297,319,cs),
(297,396,o),
(391,538,o),
(596,538,cs),
(666,538,o),
(703,587,o),
(703,629,cs),
(703,697,o),
(666,730,o),
(582,730,cs),
(222,730,o),
(86,455,o),
(86,324,cs),
(86,189,o),
(198,29,o),
(437,29,cs)
);
},
{
closed = 1;
nodes = (
(709,-187,o),
(757,-114,o),
(719,-37,cs),
(584,237,ls),
(564,278,o),
(536,290,o),
(504,290,cs),
(414,290,o),
(385,212,o),
(409,143,cs),
(495,-106,ls),
(513,-157,o),
(566,-187,o),
(619,-187,cs)
);
}
);
width = 840;
},
{
associatedMasterId = m01;
layerId = "AB930E9E-8426-4BC0-91F9-442A2CD159FF";
name = "6 Nov 21, 17:44";
shapes = (
{
closed = 1;
nodes = (
(670,29,o),
(825,301,o),
(784,534,cs),
(768,624,o),
(717,657,o),
(655,657,cs),
(584,657,o),
(548,603,o),
(561,525,cs),
(595,322,o),
(493,211,o),
(424,211,cs),
(344,211,o),
(297,257,o),
(297,319,cs),
(297,396,o),
(391,538,o),
(596,538,cs),
(666,538,o),
(703,587,o),
(703,629,cs),
(703,697,o),
(666,730,o),
(582,730,cs),
(222,730,o),
(86,455,o),
(86,324,cs),
(86,189,o),
(198,29,o),
(437,29,cs)
);
},
{
closed = 1;
nodes = (
(815,-160,o),
(815,-82,cs),
(815,-24,o),
(796,13,o),
(750,33,cs),
(389,189,ls),
(327,216,o),
(280,146,o),
(280,92,cs),
(280,43,o),
(325,17,o),
(371,-9,cs),
(653,-166,ls),
(730,-209,o)
);
}
);
width = 840;
},
{
hints = (
{
name = _corner.round1;
origin = (0,8,0,17);
stem = 1000;
type = Corner;
},
{
name = _corner.round1;
origin = (0,11,1,8);
stem = 1000;
type = Corner;
}
);
layerId = m01;
name = Regular;
shapes = (
{
closed = 1;
nodes = (
(670,-1,o),
(826,277,o),
(784,514,cs),
(768,604,o),
(717,637,o),
(655,637,cs),
(599,637,o),
(568,583,o),
(581,505,cs),
(617,289,o),
(503,171,o),
(424,171,cs),
(348,171,o),
(304,223,o),
(304,294,cs),
(304,403,o),
(401,528,o),
(596,528,cs),
(666,528,o),
(703,572,o),
(703,609,cs),
(703,677,o),
(666,710,o),
(582,710,cs),
(229,710,o),
(96,428,o),
(96,294,cs),
(96,159,o),
(205,-1,o),
(437,-1,cs)
);
},
{
closed = 1;
nodes = (
(803,-119,o),
(820,-41,cs),
(827,-8,o),
(813,27,o),
(770,61,cs),
(551,245,ls),
(476,307,o),
(387,251,o),
(387,174,cs),
(387,148,o),
(398,119,o),
(423,92,cs),
(627,-100,ls),
(697,-173,o)
);
}
);
width = 840;
}
);
unicode = (81,113);
},
{
glyphname = R;
lastChange = "2022-08-24 07:47:29 +0000";
layers = (
{
hints = (
{
name = _corner.round1;
origin = (0,3,0,18);
stem = 1000;
type = Corner;
},
{
name = _corner.round1;
origin = (0,3,0,15);
stem = 1000;
type = Corner;
}
);
layerId = m01;
shapes = (
{
closed = 1;
nodes = (
(168,-31,o),
(209,-2,o),
(240,58,cs),
(447,455,ls),
(490,537,o),
(531,565,o),
(572,565,cs),
(606,565,o),
(626,543,o),
(626,518,cs),
(626,473,o),
(587,444,o),
(506,430,cs),
(369,407,o),
(256,341,o),
(256,293,cs),
(255,216,o),
(306,158,o),
(401,115,cs),
(492,72,o),
(612,44,o),
(726,44,cs),
(825,44,o),
(885,85,o),
(885,153,cs),
(885,208,o),
(841,257,o),
(758,255,cs),
(647,252,o),
(510,252,o),
(466,270,cs),
(449,276,o),
(452,301,o),
(473,301,cs),
(730,301,o),
(850,407,o),
(850,559,cs),
(850,685,o),
(745,768,o),
(616,768,cs),
(479,768,o),
(338,685,o),
(233,496,cs),
(56,175,ls),
(-7,62,o),
(31,-31,o),
(116,-31,cs)
);
}
);
width = 959;
}
);
unicode = (82,114);
},
{
glyphname = S;
lastChange = "2022-08-24 07:47:29 +0000";
layers = (
{
layerId = m01;
shapes = (
{
closed = 1;
nodes = (
(277,-43,o),
(359,-17,o),
(447,49,cs),
(483,76,ls),
(557,132,o),
(582,184,o),
(582,244,cs),
(582,299,o),
(538,358,o),
(429,401,cs),
(398,413,ls),
(362,427,o),
(351,439,o),
(351,456,cs),
(351,494,o),
(487,560,o),
(579,560,cs),
(626,560,o),
(665,553,o),
(713,543,cs),
(791,527,o),
(833,587,o),
(833,648,cs),
(833,721,o),
(717,750,o),
(585,750,cs),
(393,750,o),
(98,632,o),
(98,463,cs),
(98,399,o),
(128,340,o),
(192,311,cs),
(305,260,ls),
(329,249,o),
(328,225,o),
(301,214,cs),
(161,157,ls),
(110,136,o),
(89,99,o),
(89,60,cs),
(89,7,o),
(151,-43,o),
(220,-43,cs)
);
}
);
width = 782;
}
);
unicode = (83,115);
},
{
glyphname = T;
lastChange = "2022-08-24 07:47:29 +0000";
layers = (
{
hints = (
{
name = _corner.round1;
origin = (0,5,1,0);
stem = 1000;
type = Corner;
},
{
name = _corner.round1;
origin = (0,14,1,0);
stem = 1000;
type = Corner;
}
);
layerId = m01;
shapes = (
{
closed = 1;
nodes = (
(530,-12,o),
(551,33,o),
(576,70,cs),
(687,236,o),
(755,411,o),
(805,579,cs),
(844,711,o),
(783,772,o),
(693,772,cs),
(615,772,o),
(573,732,o),
(551,628,cs),
(519,479,o),
(450,288,o),
(369,139,cs),
(328,63,o),
(378,-12,o),
(456,-12,cs)
);
},
{
closed = 1;
nodes = (
(900,510,ls),
(985,518,o),
(1022,561,o),
(1022,615,cs),
(1022,682,o),
(968,713,o),
(873,707,cs),
(208,669,ls),
(129,664,o),
(77,629,o),
(77,565,cs),
(77,495,o),
(143,457,o),
(231,464,cs)
);
}
);
width = 1002;
}
);
unicode = (84,116);
},
{
glyphname = U;
lastChange = "2022-08-24 07:47:29 +0000";
layers = (
{
layerId = m01;
shapes = (
{
closed = 1;
nodes = (
(716,-12,o),
(741,18,o),
(745,80,cs),
(766,376,ls),
(776,515,o),
(683,579,o),
(623,579,cs),
(584,579,o),
(557,562,o),
(535,518,cs),
(495,438,ls),
(441,330,o),
(414,273,o),
(394,273,cs),
(366,273,o),
(351,293,o),
(354,324,cs),
(376,530,ls),
(391,668,o),
(347,723,o),
(264,723,cs),
(191,723,o),
(139,684,o),
(132,579,cs),
(108,211,ls),
(98,64,o),
(184,-12,o),
(304,-12,cs),
(360,-12,o),
(403,15,o),
(436,64,cs),
(497,154,ls),
(519,187,o),
(555,177,o),
(556,136,cs),
(558,71,ls),
(560,17,o),
(587,-12,o),
(657,-12,cs)
);
}
);
width = 859;
}
);
unicode = (85,117);
},
{
glyphname = V;
lastChange = "2022-08-24 07:47:29 +0000";
layers = (
{
layerId = m01;
shapes = (
{
closed = 1;
nodes = (
(343,-30,o),
(400,-6,o),
(444,56,cs),
(777,524,ls),
(845,619,o),
(835,729,o),
(725,729,cs),
(666,729,o),
(635,697,o),
(602,641,cs),
(395,284,ls),
(372,244,o),
(351,255,o),
(351,278,cs),
(349,514,ls),
(348,660,o),
(312,700,o),
(224,700,cs),
(127,700,o),
(92,641,o),
(98,536,cs),
(124,107,ls),
(128,34,o),
(182,-30,o),
(284,-30,cs)
);
}
);
width = 765;
}
);
unicode = (86,118);
},
{
glyphname = W;
lastChange = "2022-08-24 07:47:29 +0000";
layers = (
{
hints = (
{
name = _corner.round1;
origin = (0,21,0,23);
stem = 1000;
type = Corner;
}
);
layerId = m01;
shapes = (
{
closed = 1;
nodes = (
(737,-31,o),
(771,-16,o),
(804,46,cs),
(1057,524,ls),
(1126,655,o),
(1055,728,o),
(959,728,cs),
(906,728,o),
(876,703,o),
(844,636,cs),
(737,414,ls),
(711,360,o),
(683,362,o),
(674,399,cs),
(649,498,ls),
(630,575,o),
(587,605,o),
(533,605,cs),
(483,605,o),
(442,585,o),
(397,489,cs),
(314,313,l),
(360,262,l),
(299,572,ls),
(287,633,o),
(247,660,o),
(195,660,cs),
(114,660,o),
(76,605,o),
(83,545,cs),
(124,173,ls),
(134,84,o),
(184,23,o),
(258,23,cs),
(315,23,o),
(354,56,o),
(394,133,cs),
(446,234,ls),
(465,271,o),
(496,275,o),
(514,225,cs),
(571,68,ls),
(600,-11,o),
(642,-31,o),
(689,-31,cs)
);
}
);
width = 1040;
}
);
unicode = (87,119);
},
{
glyphname = X;
lastChange = "2022-08-24 07:47:29 +0000";
layers = (
{
hints = (
{
name = _corner.round1;
origin = (0,14,1,3);
stem = 1000;
type = Corner;
},
{
name = _corner.round1;
origin = (0,5,1,3);
stem = 1000;
type = Corner;
},
{
name = _corner.round1;
origin = (0,5,1,10);
stem = 1000;
type = Corner;
},
{
name = _corner.round1;
origin = (0,14,1,10);
stem = 1000;
type = Corner;
}
);
layerId = m01;
shapes = (
{
closed = 1;
nodes = (
(-2,85,o),
(32,50,o),
(103,50,cs),
(285,50,o),
(747,306,o),
(844,484,cs),
(908,600,o),
(847,669,o),
(767,669,cs),
(714,669,o),
(674,641,o),
(635,579,cs),
(528,408,o),
(349,306,o),
(90,239,cs),
(12,219,o),
(-2,170,o),
(-2,136,cs)
);
},
{
closed = 1;
nodes = (
(625,-13,o),
(677,60,o),
(635,137,cs),
(360,648,ls),
(333,698,o),
(297,712,o),
(256,712,cs),
(155,712,o),
(105,622,o),
(155,531,cs),
(411,68,ls),
(437,20,o),
(482,-13,o),
(535,-13,cs)
);
}
);
width = 846;
}
);
unicode = (88,120);
},
{
glyphname = Y;
lastChange = "2022-08-24 07:47:29 +0000";
layers = (
{
hints = (
{
name = _corner.round1;
origin = (0,10,1,12);
stem = 1000;
type = Corner;
},
{
name = _corner.round1;
origin = (0,10,1,3);
stem = 1000;
type = Corner;
}
);
layerId = m01;
shapes = (
{
closed = 1;
nodes = (
(336,-111,o),
(367,-92,o),
(415,-34,cs),
(927,593,ls),
(1011,695,o),
(943,785,o),
(863,785,cs),
(805,785,o),
(761,762,o),
(718,710,cs),
(187,60,ls),
(115,-28,o),
(163,-111,o),
(279,-111,cs)
);
},
{
closed = 1;
nodes = (
(607,343,l),
(479,425,o),
(399,490,o),
(323,596,cs),
(287,647,o),
(246,671,o),
(195,671,cs),
(107,671,o),
(33,585,o),
(114,479,cs),
(197,369,o),
(313,285,o),
(468,199,c)
);
}
);
width = 896;
}
);
unicode = (89,121);
},
{
glyphname = Z;
lastChange = "2022-08-24 07:47:29 +0000";
layers = (
{
layerId = m01;
shapes = (
{
closed = 1;
nodes = (
(171,505,o),
(269,505,cs),
(371,505,ls),
(417,505,o),
(424,473,o),
(396,457,cs),
(98,288,ls),
(23,246,o),
(-11,200,o),
(-11,140,cs),
(-11,75,o),
(16,7,o),
(113,7,cs),
(266,7,o),
(405,-19,o),
(503,-83,cs),
(610,-154,o),
(666,-62,o),
(666,0,cs),
(666,40,o),
(645,75,o),
(599,98,cs),
(508,142,o),
(396,175,o),
(299,181,cs),
(268,182,o),
(245,200,o),
(285,222,cs),
(653,420,ls),
(699,445,o),
(729,496,o),
(729,549,cs),
(729,621,o),
(676,689,o),
(585,692,cs),
(258,702,ls),
(187,705,o),
(143,666,o),
(143,608,cs),
(143,543,o)
);
}
);
width = 762;
}
);
unicode = (90,122);
},
{
glyphname = zero;
lastChange = "2022-01-31 06:32:20 +0000";
layers = (
{
layerId = m01;
shapes = (
{
closed = 1;
nodes = (
(549,-10,o),
(652,207,o),
(652,401,cs),
(652,587,o),
(549,711,o),
(429,711,cs),
(360,711,o),
(322,670,o),
(322,622,cs),
(322,509,o),
(454,568,o),
(454,398,cs),
(454,264,o),
(397,172,o),
(342,172,cs),
(301,172,o),
(265,201,o),
(265,258,cs),
(265,436,o),
(401,451,o),
(401,542,cs),
(401,609,o),
(375,642,o),
(318,642,cs),
(156,642,o),
(64,405,o),
(64,243,cs),
(64,92,o),
(172,-10,o),
(342,-10,cs)
);
}
);
width = 713;
}
);
unicode = 48;
},
{
glyphname = one;
lastChange = "2022-02-03 08:05:53 +0000";
layers = (
{
associatedMasterId = m01;
layerId = "BAAB6D40-0C14-4365-9BA6-E5367A303967";
name = "3 Feb 22, 19:05";
shapes = (
{
closed = 1;
nodes = (
(396,-12,o),
(434,31,o),
(440,76,cs),
(505,538,ls),
(527,698,o),
(431,745,o),
(315,699,cs),
(132,627,ls),
(19,582,o),
(51,418,o),
(159,418,cs),
(178,418,o),
(196,422,o),
(211,428,cs),
(241,442,o),
(252,433,o),
(249,411,cs),
(211,126,ls),
(201,51,o),
(229,-12,o),
(326,-12,cs)
);
}
);
width = 588;
},
{
layerId = m01;
name = Regular;
shapes = (
{
closed = 1;
nodes = (
(89,-15,o),
(142,-15,cs),
(188,-15,o),
(223,10,o),
(237,41,cs),
(434,484,ls),
(500,633,o),
(439,711,o),
(334,711,cs),
(282,711,o),
(236,682,o),
(208,609,cs),
(35,160,ls),
(-18,21,o)
);
}
);
width = 472;
}
);
unicode = 49;
},
{
glyphname = two;
lastChange = "2022-02-03 10:21:53 +0000";
layers = (
{
layerId = m01;
shapes = (
{
closed = 1;
nodes = (
(146,345,o),
(197,345,cs),
(260,345,o),
(286,377,o),
(302,424,cs),
(326,503,o),
(354,550,o),
(417,550,cs),
(451,550,o),
(470,526,o),
(470,492,cs),
(470,401,o),
(407,254,o),
(112,165,cs),
(48,146,o),
(19,110,o),
(19,66,cs),
(19,-4,o),
(70,-57,o),
(151,-31,cs),
(311,21,o),
(436,34,o),
(557,8,cs),
(637,-10,o),
(682,29,o),
(682,94,cs),
(682,149,o),
(640,184,o),
(586,185,cs),
(542,186,o),
(490,181,o),
(445,170,cs),
(418,163,o),
(405,188,o),
(434,204,cs),
(574,281,o),
(665,368,o),
(665,499,cs),
(665,626,o),
(582,716,o),
(428,716,cs),
(269,716,o),
(110,556,o),
(110,427,cs),
(110,373,o)
);
}
);
width = 747;
}
);
unicode = 50;
},
{
glyphname = three;
lastChange = "2022-02-03 10:21:43 +0000";
layers = (
{
layerId = m01;
shapes = (
{
closed = 1;
nodes = (
(52,-235,o),
(632,-100,o),
(632,165,cs),
(632,285,o),
(527,347,o),
(419,347,cs),
(400,347,o),
(396,366,o),
(417,371,cs),
(499,390,o),
(558,440,o),
(558,529,cs),
(558,626,o),
(475,716,o),
(338,716,cs),
(224,716,o),
(124,652,o),
(124,592,cs),
(124,549,o),
(149,514,o),
(199,514,cs),
(241,514,o),
(256,550,o),
(320,550,cs),
(348,550,o),
(363,529,o),
(363,499,cs),
(363,453,o),
(251,416,o),
(134,388,cs),
(67,373,o),
(46,341,o),
(45,302,cs),
(46,254,o),
(73,226,o),
(136,226,cs),
(312,225,ls),
(397,225,o),
(429,199,o),
(429,163,cs),
(429,82,o),
(196,-24,o),
(-68,-100,cs),
(-148,-123,o),
(-159,-153,o),
(-159,-189,cs),
(-159,-249,o),
(-117,-287,o),
(-42,-264,cs)
);
}
);
width = 675;
}
);
unicode = 51;
},
{
glyphname = four;
lastChange = "2022-02-03 10:21:37 +0000";
layers = (
{
layerId = m01;
shapes = (
{
closed = 1;
nodes = (
(442,-125,o),
(477,-101,o),
(491,-69,cs),
(716,466,ls),
(755,558,o),
(708,641,o),
(628,641,cs),
(565,641,o),
(529,615,o),
(502,539,cs),
(319,50,ls),
(271,-86,o),
(358,-125,o),
(396,-125,cs)
);
},
{
closed = 1;
nodes = (
(667,136,o),
(721,169,o),
(721,250,cs),
(721,293,o),
(699,324,o),
(633,322,cs),
(323,314,ls),
(302,313,o),
(292,328,o),
(302,350,cs),
(331,413,ls),
(416,597,o),
(350,671,o),
(275,671,cs),
(223,671,o),
(191,640,o),
(174,594,cs),
(60,290,ls),
(25,196,o),
(47,149,o),
(133,147,cs),
(575,138,ls)
);
}
);
width = 782;
}
);
unicode = 52;
},
{
glyphname = five;
lastChange = "2022-02-03 10:21:26 +0000";
layers = (
{
layerId = m01;
shapes = (
{
closed = 1;
nodes = (
(67,-200,o),
(545,-83,o),
(545,151,cs),
(545,273,o),
(454,348,o),
(358,348,cs),
(339,348,o),
(332,362,o),
(344,379,cs),
(379,428,ls),
(435,506,o),
(371,566,o),
(317,566,cs),
(280,566,o),
(250,559,o),
(221,521,cs),
(59,314,ls),
(37,286,o),
(30,268,o),
(30,241,cs),
(30,176,o),
(81,150,o),
(129,169,cs),
(181,190,o),
(218,208,o),
(266,208,cs),
(320,208,o),
(341,182,o),
(341,146,cs),
(341,83,o),
(178,2,o),
(-72,-61,cs),
(-152,-81,o),
(-163,-114,o),
(-163,-150,cs),
(-163,-210,o),
(-122,-242,o),
(-46,-225,cs)
);
},
{
closed = 1;
nodes = (
(597,591,o),
(767,653,o),
(845,665,cs),
(895,672,o),
(913,699,o),
(913,732,cs),
(913,793,o),
(856,823,o),
(778,823,cs),
(680,823,o),
(501,749,o),
(415,691,cs),
(387,673,o),
(375,651,o),
(375,620,cs),
(375,548,o),
(447,498,o),
(516,540,cs)
);
}
);
width = 761;
}
);
unicode = 53;
},
{
glyphname = six;
lastChange = "2022-02-03 10:21:11 +0000";
layers = (
{
layerId = m01;
shapes = (
{
closed = 1;
nodes = (
(446,-23,o),
(617,42,o),
(617,200,cs),
(617,334,o),
(474,455,o),
(346,455,cs),
(255,455,o),
(228,411,o),
(228,361,cs),
(228,335,o),
(246,311,o),
(266,308,cs),
(338,294,o),
(411,264,o),
(411,203,cs),
(411,168,o),
(345,140,o),
(288,140,cs),
(244,140,o),
(228,162,o),
(228,189,cs),
(228,288,o),
(335,416,o),
(606,539,cs),
(674,570,o),
(651,694,o),
(546,694,cs),
(511,695,o),
(481,687,o),
(451,669,cs),
(223,532,o),
(28,326,o),
(28,177,cs),
(28,59,o),
(116,-23,o),
(263,-23,cs)
);
}
);
width = 673;
}
);
unicode = 54;
},
{
glyphname = seven;
lastChange = "2022-02-03 10:22:17 +0000";
layers = (
{
layerId = m01;
shapes = (
{
closed = 1;
nodes = (
(82,517,o),
(74,494,o),
(74,465,cs),
(74,392,o),
(124,356,o),
(200,387,cs),
(274,416,o),
(378,442,o),
(479,442,cs),
(572,442,o),
(592,402,o),
(555,338,cs),
(380,35,ls),
(312,-83,o),
(381,-160,o),
(454,-160,cs),
(504,-160,o),
(533,-136,o),
(556,-95,cs),
(762,279,ls),
(874,482,o),
(734,625,o),
(533,629,cs),
(382,633,o),
(178,587,o),
(116,542,cs)
);
},
{
closed = 1;
nodes = (
(513,126,o),
(693,148,o),
(828,152,cs),
(877,154,o),
(908,186,o),
(908,229,cs),
(908,285,o),
(857,324,o),
(784,323,cs),
(680,322,o),
(399,275,o),
(352,265,cs),
(313,257,o),
(288,225,o),
(285,184,cs),
(284,131,o),
(328,90,o),
(390,102,cs)
);
}
);
width = 939;
}
);
unicode = 55;
},
{
glyphname = eight;
lastChange = "2022-02-03 10:22:05 +0000";
layers = (
{
layerId = m01;
shapes = (
{
closed = 1;
nodes = (
(446,-15,o),
(671,158,o),
(671,263,cs),
(671,350,o),
(555,424,o),
(412,424,cs),
(274,424,o),
(9,302,o),
(9,147,cs),
(9,61,o),
(96,-15,o),
(251,-15,cs)
);
},
{
closed = 1;
nodes = (
(252,148,o),
(235,162,o),
(235,184,cs),
(235,227,o),
(359,313,o),
(407,313,cs),
(433,313,o),
(448,293,o),
(448,268,cs),
(448,230,o),
(322,148,o),
(277,148,cs)
);
},
{
closed = 1;
nodes = (
(432,458,o),
(422,470,o),
(422,485,cs),
(422,516,o),
(541,562,o),
(559,583,c),
(592,564,o),
(599,553,o),
(599,541,cs),
(599,515,o),
(506,458,o),
(459,458,cs)
);
},
{
closed = 1;
nodes = (
(569,320,o),
(798,477,o),
(798,569,cs),
(798,642,o),
(700,705,o),
(549,728,c),
(421,700,o),
(223,579,o),
(223,458,cs),
(223,385,o),
(305,320,o),
(453,320,cs)
);
}
);
width = 782;
},
{
associatedMasterId = m01;
layerId = "28822752-AFCA-4E92-A286-88508E06BB70";
name = "3 Feb 22, 21:11";
shapes = (
{
closed = 1;
nodes = (
(426,-15,o),
(651,158,o),
(651,263,cs),
(651,350,o),
(535,424,o),
(392,424,cs),
(254,424,o),
(-11,302,o),
(-11,147,cs),
(-11,61,o),
(76,-15,o),
(231,-15,cs)
);
},
{
closed = 1;
nodes = (
(232,148,o),
(215,162,o),
(215,184,cs),
(215,227,o),
(339,313,o),
(387,313,cs),
(413,313,o),
(428,293,o),
(428,268,cs),
(428,230,o),
(302,148,o),
(257,148,cs)
);
},
{
closed = 1;
nodes = (
(412,458,o),
(402,470,o),
(402,485,cs),
(402,519,o),
(499,569,o),
(536,569,cs),
(569,569,o),
(579,555,o),
(579,541,cs),
(579,515,o),
(486,458,o),
(439,458,cs)
);
},
{
closed = 1;
nodes = (
(549,320,o),
(778,477,o),
(778,569,cs),
(778,642,o),
(693,714,o),
(569,714,cs),
(415,714,o),
(203,579,o),
(203,458,cs),
(203,385,o),
(285,320,o),
(433,320,cs)
);
}
);
width = 765;
}
);
unicode = 56;
},
{
glyphname = nine;
lastChange = "2022-02-03 10:22:11 +0000";
layers = (
{
hints = (
{
name = _corner.round1;
origin = (0,33,0,35);
stem = 1000;
type = Corner;
}
);
layerId = m01;
shapes = (
{
closed = 1;
nodes = (
(381,-157,o),
(410,-135,o),
(426,-97,cs),
(650,444,ls),
(692,545,o),
(645,610,o),
(566,610,cs),
(510,610,o),
(457,552,o),
(457,494,cs),
(457,434,o),
(358,302,o),
(307,302,cs),
(279,302,o),
(259,315,o),
(259,332,cs),
(259,391,o),
(378,491,o),
(472,509,cs),
(534,521,o),
(532,564,o),
(532,599,cs),
(532,642,o),
(499,664,o),
(449,664,cs),
(344,664,o),
(67,473,o),
(67,317,cs),
(67,230,o),
(139,152,o),
(262,152,cs),
(335,152,o),
(450,167,o),
(510,182,c),
(414,367,l),
(260,8,ls),
(215,-97,o),
(232,-156,o),
(324,-157,cs)
);
}
);
width = 693;
}
);
unicode = 57;
},
{
glyphname = .notdef;
lastChange = "2022-08-24 07:52:46 +0000";
layers = (
{
layerId = m01;
shapes = (
{
closed = 1;
nodes = (
(468,0,ls),
(609,2,o),
(694,34,o),
(712,166,cs),
(754,481,ls),
(773,627,o),
(705,700,o),
(551,702,cs),
(408,704,ls),
(266,706,o),
(175,635,o),
(149,516,cs),
(79,200,ls),
(48,61,o),
(117,-5,o),
(249,-3,cs)
);
},
{
closed = 1;
nodes = (
(340,84,o),
(302,100,o),
(302,127,cs),
(302,180,o),
(354,197,o),
(396,197,cs),
(463,197,o),
(501,174,o),
(501,141,cs),
(501,98,o),
(457,84,o),
(391,84,cs)
);
},
{
closed = 1;
nodes = (
(384,223,o),
(361,257,o),
(361,291,cs),
(361,380,o),
(492,421,o),
(492,468,cs),
(492,491,o),
(480,507,o),
(456,507,cs),
(381,507,o),
(418,425,o),
(326,425,cs),
(291,425,o),
(266,444,o),
(266,481,cs),
(266,543,o),
(365,621,o),
(463,621,cs),
(569,621,o),
(626,559,o),
(626,473,cs),
(626,375,o),
(480,369,o),
(480,306,cs),
(480,293,o),
(488,282,o),
(488,267,cs),
(488,240,o),
(467,223,o),
(432,223,cs)
);
}
);
width = 841;
}
);
},
{
glyphname = period;
lastChange = "2021-11-06 06:50:18 +0000";
layers = (
{
layerId = m01;
shapes = (
{
closed = 1;
nodes = (
(340,25,o),
(340,144,cs),
(340,216,o),
(290,266,o),
(204,266,cs),
(110,266,o),
(-10,224,o),
(-10,92,cs),
(-10,25,o),
(47,-15,o),
(125,-15,cs),
(214,-15,o)
);
}
);
width = 407;
}
);
unicode = 46;
},
{
glyphname = comma;
lastChange = "2021-11-06 06:53:15 +0000";
layers = (
{
layerId = m01;
shapes = (
{
closed = 1;
nodes = (
(78,111,o),
(86,176,cs),
(95,258,o),
(144,301,o),
(215,301,cs),
(308,301,o),
(354,244,o),
(354,172,cs),
(354,74,o),
(187,-138,o),
(57,-138,cs),
(-38,-138,o),
(-86,-54,o),
(-3,9,cs),
(43,44,o)
);
}
);
width = 414;
}
);
unicode = 44;
},
{
glyphname = hyphen;
lastChange = "2021-11-06 06:49:26 +0000";
layers = (
{
layerId = m01;
shapes = (
{
closed = 1;
nodes = (
(378,232,ls),
(462,249,o),
(500,283,o),
(500,337,cs),
(500,397,o),
(444,435,o),
(351,419,cs),
(132,381,ls),
(70,370,o),
(27,338,o),
(27,270,cs),
(27,217,o),
(84,181,o),
(155,196,cs)
);
}
);
width = 524;
}
);
unicode = 45;
},
{
glyphname = ampersand;
lastChange = "2022-02-15 01:54:21 +0000";
layers = (
{
background = {
shapes = (
{
closed = 1;
nodes = (
(523,104,o),
(492,286,o),
(492,329,cs),
(492,422,o),
(622,523,o),
(741,523,cs),
(774,523,o),
(796,506,o),
(796,482,cs),
(796,450,o),
(768,427,o),
(637,401,cs),
(236,321,ls),
(-45,265,o),
(-122,189,o),
(-122,88,cs),
(-122,-6,o),
(-30,-82,o),
(145,-39,cs),
(304,0,o),
(685,34,o),
(884,0,cs),
(1002,-21,o),
(1039,29,o),
(1039,79,cs),
(1039,162,o),
(1009,182,o),
(940,190,cs),
(720,213,o),
(503,195,o),
(288,154,cs),
(252,146,o),
(236,159,o),
(236,178,cs),
(236,200,o),
(257,208,o),
(291,212,cs),
(745,264,ls),
(928,285,o),
(1036,365,o),
(1036,471,cs),
(1036,620,o),
(862,700,o),
(722,700,cs),
(520,700,o),
(304,521,o),
(304,291,cs),
(304,214,o),
(317,67,o),
(346,-26,cs),
(359,-66,o),
(386,-88,o),
(446,-88,cs),
(512,-88,o),
(550,-52,o),
(535,31,cs)
);
}
);
};
hints = (
{
name = _corner.round1;
origin = (1,9);
type = Corner;
},
{
name = _corner.round1;
origin = (0,33);
type = Corner;
}
);
layerId = m01;
shapes = (
{
closed = 1;
nodes = (
(493,-88,o),
(521,-63,o),
(523,-12,cs),
(524,3,o),
(529,11,o),
(546,11,cs),
(641,17,o),
(736,14,o),
(804,0,cs),
(898,-21,o),
(928,37,o),
(928,95,cs),
(928,158,o),
(897,183,o),
(839,191,cs),
(727,206,o),
(641,208,o),
(542,195,cs),
(516,191,o),
(499,195,o),
(499,218,cs),
(499,231,o),
(507,239,o),
(535,243,cs),
(691,264,ls),
(840,284,o),
(927,365,o),
(927,471,cs),
(927,620,o),
(786,700,o),
(672,700,cs),
(519,700,o),
(356,552,o),
(335,355,c),
(278,341,ls),
(45,285,o),
(-18,204,o),
(-18,99,cs),
(-18,-1,o),
(59,-83,o),
(220,-34,cs),
(243,-27,o),
(299,-16,o),
(345,-9,cs),
(360,-8,o),
(364,-13,o),
(367,-26,cs),
(377,-66,o),
(399,-88,o),
(448,-88,cs)
);
},
{
closed = 1;
nodes = (
(526,457,o),
(605,523,o),
(678,523,cs),
(704,523,o),
(722,506,o),
(722,482,cs),
(722,454,o),
(703,433,o),
(613,411,cs),
(503,384,l)
);
},
{
closed = 1;
nodes = (
(276,152,o),
(264,162,o),
(264,177,cs),
(264,194,o),
(279,209,o),
(315,209,cs),
(323,209,o),
(337,202,o),
(337,181,cs),
(337,160,o),
(327,152,o),
(305,152,cs)
);
}
);
width = 995;
}
);
unicode = 38;
},
{
export = 0;
glyphname = _corner.round1;
lastChange = "2021-11-05 06:23:34 +0000";
layers = (
{
layerId = m01;
shapes = (
{
closed = 0;
nodes = (
(0,44,l),
(0,9,o),
(14,0,o),
(41,0,c)
);
}
